PathFileType	4	(X/Y/Z)	D:\TRACE\v60_Jaco2_6-2-23\JustBodyDRS_Motion1_2-platform.trc
DataRate	CameraRate	NumFrames	NumMarkers	Units	OrigDataRate	OrigDataStartFrame	OrigNumFrames
100.00	100.00	      47	5	mm	100.00	4347	      6954
Frame#	Time	Left_Front			Right_Front			Left_Aft			Right_Aft			Post			
		X1	Y1	Z1	X2	Y2	Z2	X3	Y3	Z3	X4	Y4	Z4	X5	Y5	Z5	

4347	43.460	-813.49377	-13.80867	-643.99402	756.21979	-11.90817	-648.91956	-721.68469	22.63211	490.80035	720.58423	22.61954	500.45755	-27.51901	1274.66528	-1009.93597	
4348	43.470	-812.59106	-13.86105	-643.86322	757.44830	-12.36809	-649.15997	-720.54974	22.91944	490.86081	721.53400	22.76104	500.35596	-26.84567	1274.23035	-1010.02014	
4349	43.480	-811.71600	-14.18940	-643.53674	758.40955	-12.72754	-649.21069	-719.86633	23.20295	490.84418	722.42767	23.16240	500.21814	-25.77555	1273.82983	-1010.23291	
4350	43.490	-810.61090	-14.35130	-643.84534	759.10284	-12.68784	-649.31451	-718.79987	23.49921	490.77826	723.07068	23.53592	500.07663	-25.06990	1273.57166	-1010.74585	
4351	43.500	-809.87085	-14.59984	-644.15729	760.17242	-12.92405	-649.37585	-717.84149	23.60599	490.67221	724.66412	23.73039	500.09048	-23.69553	1272.97168	-1011.09845	
4352	43.510	-808.78375	-15.15164	-644.04645	761.25098	-13.41490	-649.58398	-717.04712	23.67201	490.46335	725.68658	24.25581	500.32056	-22.83158	1272.50049	-1011.69702	
4353	43.520	-807.76147	-15.43526	-644.12811	762.05035	-13.63692	-649.52319	-715.92926	23.89989	490.35693	726.30939	23.98085	499.93451	-22.25280	1272.26599	-1012.33618	
4354	43.530	-806.57953	-15.52848	-644.22339	762.94128	-13.94093	-649.75842	-714.92535	24.02003	490.25415	727.46289	24.21406	500.12558	-20.65380	1271.69177	-1013.39368	
4355	43.540	-806.12439	-15.54489	-644.38324	763.96649	-14.04085	-649.76294	-714.08392	24.33294	490.29987	728.19891	24.39856	500.05524	-20.11798	1271.42224	-1014.20703	
4356	43.550	-805.15479	-15.73844	-644.40002	765.01831	-14.15089	-649.57751	-713.19391	24.53466	490.21707	729.41241	24.53637	500.27502	-19.24709	1270.84338	-1015.08008	
4357	43.560	-803.95886	-16.22396	-644.47803	765.82343	-14.58284	-649.80310	-712.24103	24.56621	490.12097	730.22461	24.61877	500.19226	-18.02814	1270.41528	-1016.01514	
4358	43.570	-803.02960	-16.59332	-644.63214	766.82281	-14.85964	-649.83612	-711.25549	24.74289	489.95901	731.16779	24.77401	500.19943	-17.13951	1270.03918	-1016.60291	
4359	43.580	-802.50098	-16.70754	-644.72125	767.73792	-15.04005	-649.92877	-710.32605	24.91839	489.83661	732.26831	25.17662	500.14731	-16.38492	1269.82690	-1017.04761	
4360	43.590	-801.24164	-17.01591	-644.63751	768.64197	-15.47398	-649.94617	-709.34534	24.95347	489.76691	733.14417	25.31088	499.91129	-15.04258	1269.39648	-1017.64905	
4361	43.600	-799.96704	-16.92761	-644.59869	769.65472	-15.83652	-650.06311	-708.38678	25.26612	489.82040	734.14532	25.34591	499.91281	-14.26577	1268.99670	-1017.73193	
4362	43.610	-799.16565	-17.33858	-644.37207	770.69720	-15.66001	-650.16656	-707.32123	25.33050	489.77328	734.75543	25.78257	500.09094	-13.35415	1268.70483	-1018.14954	
4363	43.620	-798.40399	-17.50418	-644.74780	771.61877	-15.78204	-650.15735	-706.43250	25.43902	489.82550	735.35126	25.99228	500.16849	-12.63013	1268.55200	-1018.19647	
4364	43.630	-797.41150	-17.75775	-644.73389	772.27148	-16.09382	-650.26819	-705.38794	25.61773	489.73895	737.24164	25.77464	499.82465	-11.54880	1268.31372	-1018.52838	
4365	43.640	-796.23724	-18.01479	-644.71448	773.62769	-16.38745	-650.13373	-704.53320	25.68009	489.62756	737.69696	25.95751	499.72287	-10.70498	1268.15063	-1018.78448	
4366	43.650	-795.47144	-18.29396	-644.39960	774.53723	-16.67000	-650.29657	-703.62836	25.83705	489.53827	738.86981	26.00175	499.51962	-9.95579	1268.04468	-1018.93396	
4367	43.660	-794.53992	-18.54533	-644.86157	775.63007	-16.72363	-650.08234	-702.74396	25.94980	489.42651	739.88635	26.11515	499.41592	-8.67672	1267.49841	-1018.93939	
4368	43.670	-793.37378	-18.58468	-644.77576	776.53003	-16.74880	-650.21790	-701.65631	26.10256	489.46664	740.33197	26.43627	499.60620	-7.66711	1267.28650	-1019.25140	
4369	43.680	-792.47711	-18.61320	-644.90057	777.50958	-16.89761	-650.28235	-700.75427	26.07289	489.52414	741.91907	26.50804	499.48248	-6.99390	1267.04028	-1019.70587	
4370	43.690	-791.63971	-18.86741	-644.89105	778.66705	-17.16574	-650.31177	-699.76318	26.56925	488.92145	742.91595	26.65842	499.43817	-5.90980	1266.81689	-1020.11908	
4371	43.700	-790.28662	-19.14229	-645.24951	779.37567	-17.18220	-650.30756	-698.60901	26.20457	489.19525	743.73840	26.65125	499.42294	-4.93995	1266.86621	-1020.90631	
4372	43.710	-789.50415	-18.82395	-645.15704	780.42877	-17.19863	-650.25537	-697.72559	26.31935	489.14603	744.71826	26.75095	499.03329	-4.36577	1266.46790	-1021.27985	
4373	43.720	-788.74500	-19.03864	-645.08038	781.40497	-17.45917	-650.62860	-696.90753	26.28354	489.19644	745.34186	26.82039	499.05835	-2.88469	1266.19373	-1021.83264	
4374	43.730	-787.84686	-19.27467	-645.15466	782.21539	-17.50592	-650.54871	-695.93109	26.28902	489.47818	746.57672	26.85040	499.00589	-2.08840	1266.14001	-1022.03577	
4375	43.740	-786.65363	-19.42520	-645.20660	783.35541	-17.64815	-650.46191	-695.16779	26.53126	489.59177	747.57288	26.99559	499.02679	-1.01761	1265.91858	-1022.09967	
4376	43.750	-785.72217	-19.22507	-645.24213	784.14850	-17.68251	-650.60510	-693.70313	26.57922	489.20609	748.36902	26.96146	498.91644	0.08482	1265.94165	-1022.60803	
4377	43.760	-784.87854	-19.28477	-645.11731	785.01166	-17.63200	-650.54132	-692.98218	26.65172	489.04196	749.55658	27.06821	498.76498	0.84677	1265.90234	-1022.82996	
4378	43.770	-783.78796	-19.33591	-645.24799	786.13770	-17.70357	-650.47607	-691.92999	26.72817	488.98221	750.10828	27.14336	498.89047	1.62329	1265.69641	-1022.57874	
4379	43.780	-782.95593	-19.60813	-645.10663	787.14978	-17.83056	-650.65961	-691.12573	26.69121	488.95712	751.11029	27.10230	498.75888	2.80206	1265.48853	-1022.20782	
4380	43.790	-781.92810	-19.70761	-645.20313	787.91315	-18.05621	-650.63770	-690.29120	26.95011	488.89166	752.29626	27.20420	498.67621	3.64586	1265.48413	-1022.47314	
4381	43.800	-781.13586	-19.56858	-645.28351	788.88440	-17.83198	-650.57300	-689.19495	26.94790	488.98193	753.15344	27.23789	498.73688	4.68694	1265.43201	-1022.42090	
4382	43.810	-779.91125	-19.60615	-645.51459	789.58392	-17.76470	-650.76642	-688.22919	26.88604	489.00882	754.03290	27.40153	498.77240	5.30544	1265.34497	-1022.36292	
4383	43.820	-779.14557	-19.72741	-645.31342	790.84375	-17.82721	-650.79517	-687.89917	26.99395	489.25983	755.02911	27.25452	498.71118	6.44216	1265.22986	-1022.27252	
4384	43.830	-778.39038	-19.80852	-645.20349	791.51898	-18.02447	-650.83466	-686.55310	26.68085	489.13004	755.83429	27.10934	498.66800	7.11827	1265.25269	-1022.31531	
4385	43.840	-777.48688	-19.80549	-645.17633	792.41992	-18.19127	-650.84668	-685.53839	26.65779	488.96628	756.88849	27.13041	498.75238	8.19567	1265.31580	-1022.44135	
4386	43.850	-776.30811	-19.66959	-645.45386	793.69946	-18.06616	-650.81464	-684.72955	26.66225	488.95648	757.75861	27.37090	498.85583	9.26232	1265.19006	-1022.37256	
4387	43.860	-775.49786	-19.65779	-645.46606	794.43726	-17.83490	-650.68365	-683.44019	26.71894	489.03607	758.85022	27.32350	498.66302	10.20442	1265.39563	-1022.26544	
4388	43.870	-774.62048	-19.67447	-645.19055	795.22742	-17.75747	-650.60486	-682.51196	26.43601	489.09427	759.69714	27.30742	498.61002	10.87492	1265.61414	-1022.28070	
4389	43.880	-774.04333	-19.70514	-645.25244	796.17432	-17.68520	-650.68451	-682.06879	26.70418	489.11041	760.28882	27.13139	498.74820	11.75041	1265.36731	-1022.46497	
4390	43.890	-772.84753	-19.58820	-645.47644	797.06561	-17.79170	-650.76764	-681.04529	26.42386	489.07703	760.88464	27.02816	498.84488	12.79907	1265.25806	-1022.60065	
4391	43.900	-772.03033	-19.64864	-645.34076	797.89679	-17.96932	-650.71362	-680.21039	26.56126	489.03418	762.21375	27.14892	498.67038	13.65784	1265.56604	-1022.55475	
4392	43.910	-771.15509	-19.57153	-645.25348	798.67499	-17.88883	-650.77600	-679.40417	26.59139	488.88824	762.96552	27.19494	498.66534	14.22926	1265.64331	-1022.48645	
4393	43.920	-770.48456	-19.43553	-645.13177	799.46637	-17.91543	-650.83801	-678.46490	26.58023	488.78854	763.68915	27.21444	498.75839	14.88874	1265.76331	-1022.36041	
